<?xml version="1.0" encoding="utf-8"?>
<!-- Generator: Adobe Illustrator 16.0.0, SVG Export Plug-In . SVG Version: 6.00 Build 0)  -->
<!DOCTYPE svg PUBLIC "-//W3C//DTD SVG 1.1//EN" "http://www.w3.org/Graphics/SVG/1.1/DTD/svg11.dtd">
<svg version="1.1" id="Layer_1" xmlns="http://www.w3.org/2000/svg" xmlns:xlink="http://www.w3.org/1999/xlink" x="0px" y="0px"
	 width="256px" height="256px" viewBox="0 0 256 256" enable-background="new 0 0 256 256" xml:space="preserve">
<rect fill="#A05C94" width="256" height="256"/>
<g>
	<rect x="17.015" y="55.482" opacity="0.7" fill="#73467A" width="66" height="52.098"/>
	<rect x="17.015" y="117.987" opacity="0.7" fill="#73467A" width="66" height="52.099"/>
	<rect x="95.5" y="55.482" opacity="0.7" fill="#73467A" width="66" height="52.098"/>
	<rect x="95.5" y="117.987" opacity="0.7" fill="#73467A" width="66" height="52.099"/>
	<rect x="173.986" y="55.482" opacity="0.7" fill="#73467A" width="66" height="52.098"/>
	<rect x="173.986" y="117.987" opacity="0.7" fill="#73467A" width="66" height="52.099"/>
	<rect x="20.018" y="58.652" fill="#FFFFFF" width="59.994" height="46.092"/>
	<rect x="98.518" y="58.652" fill="#FFFFFF" width="59.994" height="46.092"/>
	<rect x="176.852" y="58.652" fill="#FFFFFF" width="59.994" height="46.092"/>
	<rect x="20.018" y="120.988" fill="#FFFFFF" width="59.994" height="46.092"/>
	<rect x="98.518" y="120.988" fill="#FFFFFF" width="59.994" height="46.092"/>
	<rect x="176.852" y="120.988" fill="#FFFFFF" width="59.994" height="46.092"/>
	<rect x="17.015" y="179.99" opacity="0.7" fill="#73467A" width="66" height="52.099"/>
	<rect x="173.986" y="179.99" opacity="0.7" fill="#73467A" width="66" height="52.099"/>
	<rect x="20.018" y="182.991" opacity="0.7" fill="#73467A" width="59.994" height="46.092"/>
	<rect x="176.852" y="182.991" opacity="0.7" fill="#73467A" width="59.994" height="46.092"/>
	<path fill-rule="evenodd" clip-rule="evenodd" fill="#A05C94" d="M41.497,90.864c0,0,4.481,1.027,8.72,1.027
		c0,0,5.147,0.121,8.721-0.966L55.95,75.341l5.955,2.959c0,0,0.498,0.437,0.908-0.03c0.23-0.276,2.016-2.876,2.783-4.145
		c0.362-0.61-0.028-0.657-0.028-0.657l-6.57-3.866c0,0-0.787-0.967-2.968-0.967h-1.877c0,0,0.061,3.896-3.937,3.896
		c0,0-3.937-0.242-3.876-3.896h-1.877c0,0-2.241,0.182-3.028,0.967l-6.581,3.835c0,0-0.272,0.332,0.03,0.906l2.796,3.987
		c0,0,0.484,0.393,0.999-0.061l5.491-2.869L41.497,90.864z"/>
	<path fill-rule="evenodd" clip-rule="evenodd" fill="#A05C94" d="M120.447,92.12c0,0,3.711,1.136,8.268,1.136
		c0,0,4.558,0.033,8.398-1.136l0.011-15.584l4.156,2.11c0,0,0.535,0.47,0.977-0.032c0.247-0.297,2.167-3.092,2.992-4.457
		c0.389-0.656-0.03-0.706-0.03-0.706l-7.063-4.156c0,0-0.847-1.039-3.19-1.039h-2.018c0,0,0.064,4.188-4.232,4.188
		c0,0-4.231-0.26-4.166-4.188h-2.019c0,0-2.409,0.195-3.255,1.039l-6.223,3.627l-0.852,0.496c0,0-0.293,0.357,0.033,0.975
		l3.006,4.286c0,0,0.488,0.422,1.042-0.065l4.178-2.078L120.447,92.12z"/>
	<path fill-rule="evenodd" clip-rule="evenodd" fill="#A05C94" d="M38.102,146.245c-0.506,0.446-0.952,0.06-0.952,0.06l-2.748-3.924
		c-0.297-0.564-0.03-0.892-0.03-0.892l0.779-0.455L38.102,146.245z M36.072,140.497l4.767-2.783
		c0.774-0.772,2.976-0.951,2.976-0.951h1.845c-0.06,3.597,3.809,3.834,3.809,3.834c3.928,0,3.868-3.834,3.868-3.834h1.845
		c2.142,0,2.916,0.951,2.916,0.951l4.756,2.803l-2.871,5.265l-2.827-1.438l-0.009,14.27c-3.511,1.069-7.677,1.04-7.677,1.04
		c-4.166,0-7.558-1.04-7.558-1.04l0.01-14.27l-2.914,1.452L36.072,140.497z M60.954,146.275c0,0,0.489,0.431,0.893-0.03
		c0.227-0.271,1.981-2.83,2.735-4.08c0.355-0.601-0.027-0.646-0.027-0.646l-0.712-0.419L60.954,146.275z"/>
	<path fill-rule="evenodd" clip-rule="evenodd" fill="#A05C94" d="M218.657,144.81l-0.011,13.781
		c-3.641,1.107-9.934,0.995-9.934,0.995c-4.319,0-9.812-0.995-9.812-0.995l0.011-13.781c2.036-1.015,2.895-2.961,2.895-2.961
		l0.058-7.835h1.912c0,2.493-0.042,5.975,0.983,6.82c1.168,2.15,3.963,1.977,3.963,1.977c1.848,0,3.188-1.041,3.909-2.051
		c1.256-1.757,1.078-6.746,1.078-6.746h1.913l0.063,7.985C215.686,141.999,216.713,143.795,218.657,144.81z"/>
	<path opacity="0.7" fill-rule="evenodd" clip-rule="evenodd" fill="#73467A" d="M106.5,134.707l-7.965,8.215l-0.017,24.172h41.676
		c0,0,6.705-6.385,10.336-9.641c-6.898,0.334-42.722,1.961-43.724-2.045C104.926,147.889,106.5,134.707,106.5,134.707z"/>
	<g>
		<g>
			<path fill="#9B5C8F" d="M127.758,157.649h-16.706c-2.814,0-5.104-2.289-5.104-5.103v-13.674
				c-0.011-1.349,0.512-2.629,1.473-3.597c0.964-0.972,2.247-1.507,3.613-1.507h35.82c2.814,0,5.104,2.289,5.104,5.104v13.674
				c0,2.813-2.289,5.103-5.104,5.103h-11.355l2.281,5.58L127.758,157.649z"/>
			<path fill="#FFFFFF" d="M146.854,134.771c2.268,0,4.102,1.836,4.102,4.103v13.674c0,2.267-1.834,4.101-4.102,4.101h-12.846
				l1.764,4.318l-7.754-4.318h-16.966c-2.267,0-4.102-1.834-4.102-4.101v-13.674c-0.018-2.249,1.817-4.103,4.084-4.103H146.854
				 M146.854,132.768h-35.82c-1.635,0-3.171,0.64-4.324,1.804c-1.15,1.159-1.776,2.692-1.764,4.317v13.658
				c0,3.366,2.739,6.104,6.105,6.104h16.446l7.301,4.064l4.986,2.777l-2.158-5.284l-0.637-1.558h9.863
				c3.367,0,6.105-2.738,6.105-6.104v-13.674C152.959,135.507,150.221,132.768,146.854,132.768L146.854,132.768z"/>
		</g>
		<path fill="#FFFFFF" d="M109.145,138.494c0.252-0.341,0.629-0.521,1.133-0.558c0.917-0.071,1.439,0.36,1.565,1.296
			c0.557,3.76,1.168,6.944,1.817,9.552l3.939-7.502c0.36-0.683,0.81-1.043,1.35-1.079c0.792-0.054,1.277,0.45,1.475,1.512
			c0.45,2.393,1.026,4.426,1.71,6.153c0.467-4.569,1.259-7.863,2.374-9.896c0.271-0.504,0.667-0.755,1.189-0.79
			c0.413-0.037,0.791,0.089,1.133,0.358c0.341,0.271,0.521,0.612,0.556,1.026c0.02,0.323-0.035,0.593-0.18,0.863
			c-0.701,1.294-1.276,3.472-1.744,6.495c-0.451,2.932-0.612,5.217-0.503,6.854c0.036,0.45-0.036,0.847-0.217,1.188
			c-0.216,0.396-0.539,0.612-0.954,0.648c-0.467,0.035-0.954-0.182-1.42-0.667c-1.673-1.71-3.005-4.264-3.977-7.664
			c-1.169,2.305-2.032,4.03-2.59,5.181c-1.063,2.034-1.961,3.078-2.717,3.132c-0.486,0.036-0.899-0.377-1.26-1.241
			c-0.917-2.356-1.906-6.909-2.967-13.656C108.803,139.232,108.893,138.818,109.145,138.494z"/>
		<path fill="#FFFFFF" d="M147.826,141.319c-0.648-1.133-1.602-1.817-2.879-2.087c-0.342-0.072-0.666-0.109-0.973-0.109
			c-1.727,0-3.129,0.9-4.227,2.699c-0.938,1.531-1.404,3.222-1.404,5.075c0,1.385,0.289,2.572,0.863,3.562
			c0.648,1.133,1.602,1.817,2.879,2.088c0.342,0.07,0.666,0.106,0.973,0.106c1.744,0,3.146-0.898,4.227-2.698
			c0.936-1.546,1.404-3.238,1.404-5.092C148.689,143.461,148.402,142.29,147.826,141.319L147.826,141.319z M145.559,146.304
			c-0.25,1.188-0.701,2.068-1.367,2.662c-0.521,0.467-1.008,0.665-1.459,0.575c-0.43-0.09-0.791-0.467-1.061-1.169
			c-0.215-0.559-0.322-1.116-0.322-1.638c0-0.45,0.035-0.898,0.125-1.313c0.162-0.738,0.467-1.459,0.953-2.143
			c0.594-0.881,1.225-1.24,1.871-1.115c0.432,0.091,0.793,0.469,1.063,1.17c0.217,0.558,0.324,1.117,0.324,1.638
			C145.686,145.438,145.631,145.889,145.559,146.304L145.559,146.304z"/>
		<path fill="#FFFFFF" d="M136.545,141.319c-0.646-1.133-1.617-1.817-2.877-2.087c-0.342-0.072-0.668-0.109-0.975-0.109
			c-1.725,0-3.129,0.9-4.227,2.699c-0.936,1.531-1.402,3.222-1.402,5.075c0,1.385,0.287,2.572,0.863,3.562
			c0.646,1.133,1.602,1.817,2.879,2.088c0.342,0.07,0.666,0.106,0.971,0.106c1.744,0,3.15-0.898,4.229-2.698
			c0.934-1.546,1.402-3.238,1.402-5.092C137.408,143.461,137.121,142.29,136.545,141.319L136.545,141.319z M134.277,146.304
			c-0.25,1.188-0.701,2.068-1.365,2.662c-0.521,0.467-1.01,0.665-1.459,0.575c-0.432-0.09-0.791-0.467-1.061-1.169
			c-0.217-0.559-0.324-1.116-0.324-1.638c0-0.45,0.037-0.898,0.127-1.313c0.16-0.738,0.467-1.459,0.953-2.143
			c0.594-0.881,1.223-1.24,1.871-1.115c0.432,0.091,0.791,0.469,1.061,1.17c0.217,0.558,0.324,1.117,0.324,1.638
			C134.404,145.438,134.367,145.889,134.277,146.304L134.277,146.304z"/>
	</g>
</g>
<g>
	<rect x="122.521" y="19.501" fill="#A05C94" width="117.477" height="91.506"/>
	<polygon fill="#FFFFFF" points="230.16,29.517 224.245,36.825 218.33,29.517 	"/>
	<path fill="#FFFFFF" d="M122.521,19.501v91.506h117.477V19.501H122.521z M236.995,108.004H125.524v-85.5h111.471V108.004z"/>
	<rect x="136.854" y="49.167" fill="#73467A" width="88.393" height="7"/>
	<rect x="125.604" y="62.502" fill="#FFFFFF" width="111.477" height="19.667"/>
	<rect x="136.854" y="29.917" fill="#73467A" width="68.893" height="7"/>
	<rect x="136.854" y="68.5" fill="#73467A" width="88.393" height="7"/>
	<rect x="136.854" y="88.498" fill="#73467A" width="88.393" height="7"/>
</g>
<rect x="17" y="20" fill="#73467A" width="93.333" height="8.667"/>
<g>
	<g>
		<path fill="#FFFFFF" d="M118.313,211.864c-0.469,0-0.869-0.072-1.201-0.217s-0.604-0.34-0.814-0.586s-0.365-0.535-0.463-0.867
			s-0.146-0.686-0.146-1.061v-0.375h1.5c0,0.375,0.023,0.684,0.07,0.926s0.117,0.434,0.211,0.574s0.211,0.238,0.352,0.293
			s0.305,0.082,0.492,0.082s0.352-0.027,0.492-0.082s0.258-0.152,0.352-0.293s0.164-0.332,0.211-0.574s0.07-0.551,0.07-0.926
			c0-0.281-0.025-0.537-0.076-0.768s-0.135-0.428-0.252-0.592s-0.271-0.291-0.463-0.381s-0.428-0.135-0.709-0.135v-1.5
			c0.281,0,0.518-0.025,0.709-0.076s0.346-0.135,0.463-0.252s0.201-0.271,0.252-0.463s0.076-0.428,0.076-0.709
			s-0.023-0.518-0.07-0.709s-0.117-0.346-0.211-0.463s-0.211-0.201-0.352-0.252s-0.305-0.076-0.492-0.076s-0.352,0.027-0.492,0.082
			s-0.258,0.152-0.352,0.293s-0.164,0.332-0.211,0.574s-0.07,0.551-0.07,0.926h-1.5v-0.375c0-0.375,0.049-0.729,0.146-1.061
			s0.252-0.621,0.463-0.867s0.482-0.441,0.814-0.586s0.732-0.217,1.201-0.217s0.869,0.072,1.201,0.217s0.604,0.34,0.814,0.586
			s0.365,0.535,0.463,0.867s0.146,0.686,0.146,1.061s-0.05,0.694-0.149,0.958s-0.225,0.483-0.375,0.659s-0.313,0.313-0.486,0.413
			s-0.337,0.173-0.489,0.22c0.152,0.051,0.315,0.132,0.489,0.243s0.336,0.268,0.486,0.469s0.275,0.458,0.375,0.771
			s0.149,0.693,0.149,1.143c0,0.469-0.049,0.895-0.146,1.277s-0.252,0.709-0.463,0.979s-0.482,0.479-0.814,0.627
			S118.781,211.864,118.313,211.864z"/>
		<path fill="#FFFFFF" d="M124.875,211.864c-0.336,0-0.662-0.058-0.979-0.173s-0.597-0.298-0.841-0.548s-0.439-0.571-0.586-0.964
			s-0.22-0.866-0.22-1.421v-4.5c0-0.473,0.048-0.877,0.144-1.213s0.22-0.619,0.372-0.85s0.324-0.414,0.516-0.551
			s0.385-0.242,0.58-0.316s0.382-0.122,0.56-0.144s0.329-0.032,0.454-0.032s0.276,0.011,0.454,0.032s0.364,0.069,0.56,0.144
			s0.389,0.18,0.58,0.316s0.363,0.32,0.516,0.551s0.276,0.514,0.372,0.85s0.144,0.74,0.144,1.213v4.5
			c0,0.555-0.073,1.028-0.22,1.421s-0.342,0.714-0.586,0.964s-0.524,0.433-0.841,0.548S125.211,211.864,124.875,211.864z
			 M124.875,210.634c0.164,0,0.307-0.031,0.428-0.094s0.223-0.145,0.305-0.246s0.149-0.219,0.202-0.352s0.093-0.269,0.12-0.407
			s0.046-0.275,0.056-0.41s0.015-0.257,0.015-0.366v-4.5c0-0.113-0.003-0.238-0.009-0.375s-0.021-0.274-0.047-0.413
			s-0.062-0.273-0.108-0.404s-0.112-0.247-0.196-0.349s-0.188-0.183-0.313-0.243s-0.275-0.091-0.451-0.091s-0.326,0.03-0.451,0.091
			s-0.229,0.142-0.313,0.243s-0.149,0.218-0.196,0.349s-0.083,0.266-0.108,0.404s-0.041,0.276-0.047,0.413s-0.009,0.262-0.009,0.375
			v4.5c0,0.109,0.005,0.231,0.015,0.366s0.028,0.271,0.056,0.41s0.067,0.274,0.12,0.407s0.12,0.25,0.202,0.352
			s0.184,0.184,0.305,0.246S124.711,210.634,124.875,210.634z"/>
		<path fill="#FFFFFF" d="M128.707,205.712c0-0.434,0.039-0.805,0.117-1.113s0.18-0.568,0.305-0.779s0.267-0.379,0.425-0.504
			s0.316-0.22,0.475-0.284s0.31-0.106,0.454-0.126s0.268-0.029,0.369-0.029s0.225,0.01,0.369,0.029s0.297,0.062,0.457,0.126
			s0.319,0.159,0.478,0.284s0.3,0.293,0.425,0.504s0.227,0.471,0.305,0.779s0.117,0.68,0.117,1.113c0,0.52-0.061,0.961-0.182,1.324
			s-0.282,0.66-0.483,0.891s-0.431,0.398-0.688,0.504s-0.523,0.158-0.797,0.158s-0.539-0.053-0.797-0.158s-0.486-0.273-0.686-0.504
			s-0.359-0.527-0.48-0.891S128.707,206.231,128.707,205.712z M130.072,205.712c0,0.102,0.004,0.216,0.012,0.343
			s0.022,0.255,0.044,0.384s0.051,0.254,0.088,0.375s0.085,0.229,0.144,0.325s0.128,0.172,0.208,0.229s0.175,0.085,0.284,0.085
			c0.164,0,0.298-0.061,0.401-0.182s0.184-0.271,0.24-0.451s0.095-0.369,0.114-0.568s0.029-0.379,0.029-0.539
			c0-0.156-0.008-0.332-0.023-0.527s-0.051-0.38-0.105-0.554s-0.134-0.319-0.237-0.437s-0.243-0.176-0.419-0.176
			c-0.172,0-0.31,0.059-0.413,0.176s-0.183,0.263-0.237,0.437s-0.09,0.358-0.105,0.554S130.072,205.556,130.072,205.712z
			 M134.309,202.864h1.283l-1.652,8.895h-1.289L134.309,202.864z M135.211,208.876c0-0.434,0.039-0.805,0.117-1.113
			s0.18-0.567,0.305-0.776s0.267-0.376,0.425-0.501s0.316-0.22,0.475-0.284s0.31-0.106,0.454-0.126s0.268-0.029,0.369-0.029
			s0.225,0.01,0.369,0.029s0.297,0.062,0.457,0.126s0.319,0.159,0.478,0.284s0.3,0.292,0.425,0.501s0.227,0.468,0.305,0.776
			s0.117,0.68,0.117,1.113c0,0.52-0.061,0.962-0.182,1.327s-0.282,0.663-0.483,0.894s-0.431,0.398-0.688,0.504
			s-0.523,0.158-0.797,0.158s-0.539-0.053-0.797-0.158s-0.486-0.273-0.686-0.504s-0.359-0.528-0.48-0.894
			S135.211,209.396,135.211,208.876z M136.576,208.876c0,0.156,0.01,0.335,0.029,0.536s0.058,0.391,0.114,0.568
			s0.136,0.328,0.237,0.451s0.234,0.185,0.398,0.185s0.298-0.061,0.401-0.182s0.184-0.271,0.24-0.448s0.095-0.367,0.114-0.568
			s0.029-0.382,0.029-0.542c0-0.156-0.008-0.332-0.023-0.527s-0.051-0.379-0.105-0.551s-0.134-0.316-0.237-0.434
			s-0.243-0.176-0.419-0.176c-0.172,0-0.31,0.059-0.413,0.176s-0.183,0.262-0.237,0.434s-0.09,0.355-0.105,0.551
			S136.576,208.72,136.576,208.876z"/>
	</g>
	<g>
		<path fill="#73467A" d="M144.44,205.041c0.072,0.646,0.109,1.302,0.109,1.968c0,2.039-0.346,3.982-0.979,5.794
			s-1.556,3.488-2.714,4.977l5.483,4.271c1.615-2.074,2.905-4.417,3.791-6.953c0.887-2.534,1.368-5.262,1.368-8.088
			c0-0.924-0.052-1.837-0.151-2.736L144.44,205.041z M117.117,192.504c1.408-0.962,2.961-1.723,4.62-2.242
			c1.658-0.521,3.422-0.803,5.263-0.803c0.37,0,0.736,0.012,1.101,0.034l0.428-6.938c-0.506-0.031-1.016-0.047-1.528-0.047
			c-2.552-0.001-5.023,0.392-7.345,1.12c-2.322,0.729-4.494,1.794-6.459,3.136L117.117,192.504z M110.162,202.041
			c0.557-1.89,1.422-3.646,2.542-5.215c1.12-1.569,2.493-2.947,4.057-4.072l-4.061-5.642c-2.181,1.57-4.091,3.488-5.652,5.676
			c-1.562,2.187-2.773,4.645-3.553,7.29L110.162,202.041z M110.822,213.824c-0.883-2.094-1.372-4.389-1.372-6.815
			c0-1.579,0.208-3.102,0.595-4.55l-6.714-1.796c-0.543,2.026-0.831,4.156-0.831,6.346c-0.001,3.365,0.683,6.589,1.918,9.518
			L110.822,213.824L110.822,213.824z M118.798,222.528c-3.434-1.817-6.199-4.754-7.803-8.307l-6.335,2.859
			c2.246,4.971,6.088,9.047,10.884,11.589L118.798,222.528z M130.48,224.214c-1.123,0.226-2.285,0.345-3.48,0.345
			c-2.819-0.001-5.461-0.659-7.815-1.831l-3.099,6.221c3.286,1.639,7.004,2.562,10.914,2.561c1.656,0,3.279-0.165,4.85-0.48
			L130.48,224.214z M140.585,218.12c-1.217,1.485-2.672,2.768-4.306,3.788c-1.633,1.02-3.442,1.776-5.374,2.215l1.539,6.778
			c2.703-0.614,5.237-1.675,7.517-3.099s4.306-3.209,6.001-5.278L140.585,218.12z"/>
		<g>
			<path fill="#FFFFFF" d="M139.255,194.446c1.365,1.333,2.515,2.886,3.389,4.598c0.874,1.713,1.474,3.584,1.744,5.565l6.886-0.939
				c-0.377-2.768-1.218-5.393-2.439-7.785c-1.222-2.394-2.823-4.557-4.726-6.413L139.255,194.446z"/>
			<path fill="#FFFFFF" d="M128.535,189.525c2.005,0.173,3.905,0.682,5.658,1.47c1.751,0.788,3.354,1.857,4.746,3.151l4.729-5.093
				c-1.939-1.802-4.174-3.294-6.624-4.396c-2.449-1.104-5.117-1.815-7.911-2.057L128.535,189.525z"/>
		</g>
	</g>
</g>
</svg>
